<mxfile host="app.diagrams.net" agent="Mozilla/5.0 (Windows NT 10.0; Win64; x64) AppleWebKit/537.36 (KHTML, like Gecko) Chrome/136.0.0.0 Safari/537.36" version="27.0.2">
  <diagram name="Page-1" id="Nvf5HlLx014jOoW9ulMn">
    <mxGraphModel dx="823" dy="800" grid="1" gridSize="10" guides="1" tooltips="1" connect="1" arrows="1" fold="1" page="1" pageScale="1" pageWidth="850" pageHeight="1100" math="0" shadow="0">
      <root>
        <mxCell id="0" />
        <mxCell id="1" parent="0" />
        <mxCell id="JZG982DdP2pkQQ2L5HDA-3" value="" style="edgeStyle=orthogonalEdgeStyle;rounded=0;orthogonalLoop=1;jettySize=auto;html=1;entryX=0.5;entryY=0;entryDx=0;entryDy=0;" edge="1" parent="1" source="JZG982DdP2pkQQ2L5HDA-1" target="JZG982DdP2pkQQ2L5HDA-8">
          <mxGeometry relative="1" as="geometry">
            <mxPoint x="425" y="160.0000000000001" as="targetPoint" />
          </mxGeometry>
        </mxCell>
        <mxCell id="JZG982DdP2pkQQ2L5HDA-1" value="File is Uploaded" style="ellipse;whiteSpace=wrap;html=1;" vertex="1" parent="1">
          <mxGeometry x="365" y="30" width="120" height="80" as="geometry" />
        </mxCell>
        <mxCell id="JZG982DdP2pkQQ2L5HDA-5" value="" style="edgeStyle=orthogonalEdgeStyle;rounded=0;orthogonalLoop=1;jettySize=auto;html=1;exitX=0.5;exitY=1;exitDx=0;exitDy=0;" edge="1" parent="1" source="JZG982DdP2pkQQ2L5HDA-8" target="JZG982DdP2pkQQ2L5HDA-4">
          <mxGeometry relative="1" as="geometry">
            <mxPoint x="425" y="210" as="sourcePoint" />
          </mxGeometry>
        </mxCell>
        <mxCell id="JZG982DdP2pkQQ2L5HDA-6" value="Yes" style="edgeStyle=orthogonalEdgeStyle;rounded=0;orthogonalLoop=1;jettySize=auto;html=1;" edge="1" parent="1" source="JZG982DdP2pkQQ2L5HDA-4">
          <mxGeometry relative="1" as="geometry">
            <mxPoint x="425.5" y="390" as="targetPoint" />
          </mxGeometry>
        </mxCell>
        <mxCell id="JZG982DdP2pkQQ2L5HDA-7" value="No" style="edgeStyle=orthogonalEdgeStyle;rounded=0;orthogonalLoop=1;jettySize=auto;html=1;entryX=0.5;entryY=1;entryDx=0;entryDy=0;" edge="1" parent="1" source="JZG982DdP2pkQQ2L5HDA-4" target="JZG982DdP2pkQQ2L5HDA-9">
          <mxGeometry relative="1" as="geometry">
            <mxPoint x="560" y="200" as="targetPoint" />
            <Array as="points">
              <mxPoint x="580" y="285" />
            </Array>
          </mxGeometry>
        </mxCell>
        <mxCell id="JZG982DdP2pkQQ2L5HDA-4" value="Correct File Type?" style="rhombus;whiteSpace=wrap;html=1;" vertex="1" parent="1">
          <mxGeometry x="353" y="240" width="145" height="90" as="geometry" />
        </mxCell>
        <mxCell id="JZG982DdP2pkQQ2L5HDA-8" value="Parse through File" style="rounded=1;whiteSpace=wrap;html=1;" vertex="1" parent="1">
          <mxGeometry x="365" y="140" width="120" height="60" as="geometry" />
        </mxCell>
        <mxCell id="JZG982DdP2pkQQ2L5HDA-10" style="edgeStyle=orthogonalEdgeStyle;rounded=0;orthogonalLoop=1;jettySize=auto;html=1;entryX=1;entryY=0.5;entryDx=0;entryDy=0;" edge="1" parent="1" source="JZG982DdP2pkQQ2L5HDA-9" target="JZG982DdP2pkQQ2L5HDA-1">
          <mxGeometry relative="1" as="geometry">
            <mxPoint x="580" y="70" as="targetPoint" />
            <Array as="points">
              <mxPoint x="580" y="70" />
            </Array>
          </mxGeometry>
        </mxCell>
        <mxCell id="JZG982DdP2pkQQ2L5HDA-9" value="Inform user that File type is Incorrect, try again." style="rounded=1;whiteSpace=wrap;html=1;" vertex="1" parent="1">
          <mxGeometry x="520" y="140" width="120" height="60" as="geometry" />
        </mxCell>
        <mxCell id="JZG982DdP2pkQQ2L5HDA-13" value="" style="edgeStyle=orthogonalEdgeStyle;rounded=0;orthogonalLoop=1;jettySize=auto;html=1;" edge="1" parent="1" source="JZG982DdP2pkQQ2L5HDA-11">
          <mxGeometry relative="1" as="geometry">
            <mxPoint x="425" y="490" as="targetPoint" />
          </mxGeometry>
        </mxCell>
        <mxCell id="JZG982DdP2pkQQ2L5HDA-11" value="Parse through File Details" style="rounded=1;whiteSpace=wrap;html=1;" vertex="1" parent="1">
          <mxGeometry x="365.5" y="390" width="120" height="60" as="geometry" />
        </mxCell>
        <mxCell id="JZG982DdP2pkQQ2L5HDA-15" value="Yes" style="edgeStyle=orthogonalEdgeStyle;rounded=0;orthogonalLoop=1;jettySize=auto;html=1;entryX=0;entryY=0.5;entryDx=0;entryDy=0;" edge="1" parent="1" source="JZG982DdP2pkQQ2L5HDA-14" target="JZG982DdP2pkQQ2L5HDA-26">
          <mxGeometry relative="1" as="geometry">
            <mxPoint x="280" y="545" as="targetPoint" />
            <Array as="points">
              <mxPoint x="320" y="545" />
              <mxPoint x="320" y="775" />
            </Array>
          </mxGeometry>
        </mxCell>
        <mxCell id="JZG982DdP2pkQQ2L5HDA-16" value="No" style="edgeStyle=orthogonalEdgeStyle;rounded=0;orthogonalLoop=1;jettySize=auto;html=1;entryX=0;entryY=0.5;entryDx=0;entryDy=0;" edge="1" parent="1" source="JZG982DdP2pkQQ2L5HDA-14" target="JZG982DdP2pkQQ2L5HDA-17">
          <mxGeometry relative="1" as="geometry">
            <mxPoint x="560" y="545" as="targetPoint" />
          </mxGeometry>
        </mxCell>
        <mxCell id="JZG982DdP2pkQQ2L5HDA-14" value="All Details Present?" style="rhombus;whiteSpace=wrap;html=1;" vertex="1" parent="1">
          <mxGeometry x="378" y="490" width="95" height="110" as="geometry" />
        </mxCell>
        <mxCell id="JZG982DdP2pkQQ2L5HDA-19" value="" style="edgeStyle=orthogonalEdgeStyle;rounded=0;orthogonalLoop=1;jettySize=auto;html=1;" edge="1" parent="1" source="JZG982DdP2pkQQ2L5HDA-17" target="JZG982DdP2pkQQ2L5HDA-18">
          <mxGeometry relative="1" as="geometry" />
        </mxCell>
        <mxCell id="JZG982DdP2pkQQ2L5HDA-17" value="Inform User that Details are missing" style="rounded=1;whiteSpace=wrap;html=1;" vertex="1" parent="1">
          <mxGeometry x="540" y="515" width="120" height="60" as="geometry" />
        </mxCell>
        <mxCell id="JZG982DdP2pkQQ2L5HDA-23" value="Yes" style="edgeStyle=orthogonalEdgeStyle;rounded=0;orthogonalLoop=1;jettySize=auto;html=1;" edge="1" parent="1" source="JZG982DdP2pkQQ2L5HDA-18" target="JZG982DdP2pkQQ2L5HDA-22">
          <mxGeometry relative="1" as="geometry" />
        </mxCell>
        <mxCell id="JZG982DdP2pkQQ2L5HDA-25" value="No" style="edgeStyle=orthogonalEdgeStyle;rounded=0;orthogonalLoop=1;jettySize=auto;html=1;" edge="1" parent="1" source="JZG982DdP2pkQQ2L5HDA-18" target="JZG982DdP2pkQQ2L5HDA-24">
          <mxGeometry relative="1" as="geometry" />
        </mxCell>
        <mxCell id="JZG982DdP2pkQQ2L5HDA-18" value="Add Details Manually?" style="rhombus;whiteSpace=wrap;html=1;" vertex="1" parent="1">
          <mxGeometry x="540" y="610" width="120" height="100" as="geometry" />
        </mxCell>
        <mxCell id="JZG982DdP2pkQQ2L5HDA-27" value="" style="edgeStyle=orthogonalEdgeStyle;rounded=0;orthogonalLoop=1;jettySize=auto;html=1;" edge="1" parent="1" source="JZG982DdP2pkQQ2L5HDA-22" target="JZG982DdP2pkQQ2L5HDA-26">
          <mxGeometry relative="1" as="geometry" />
        </mxCell>
        <mxCell id="JZG982DdP2pkQQ2L5HDA-22" value="Add Details Manually" style="rounded=1;whiteSpace=wrap;html=1;" vertex="1" parent="1">
          <mxGeometry x="365" y="630" width="120" height="60" as="geometry" />
        </mxCell>
        <mxCell id="JZG982DdP2pkQQ2L5HDA-30" value="" style="edgeStyle=orthogonalEdgeStyle;rounded=0;orthogonalLoop=1;jettySize=auto;html=1;exitX=0;exitY=0.5;exitDx=0;exitDy=0;" edge="1" parent="1" source="JZG982DdP2pkQQ2L5HDA-24" target="JZG982DdP2pkQQ2L5HDA-26">
          <mxGeometry relative="1" as="geometry">
            <Array as="points">
              <mxPoint x="509" y="780" />
              <mxPoint x="509" y="775" />
            </Array>
          </mxGeometry>
        </mxCell>
        <mxCell id="JZG982DdP2pkQQ2L5HDA-24" value="Fill in Missing details with NULL, will show within database that details are incomplete." style="rounded=1;whiteSpace=wrap;html=1;" vertex="1" parent="1">
          <mxGeometry x="530" y="740" width="140" height="80" as="geometry" />
        </mxCell>
        <mxCell id="JZG982DdP2pkQQ2L5HDA-29" value="" style="edgeStyle=orthogonalEdgeStyle;rounded=0;orthogonalLoop=1;jettySize=auto;html=1;" edge="1" parent="1" source="JZG982DdP2pkQQ2L5HDA-26" target="JZG982DdP2pkQQ2L5HDA-28">
          <mxGeometry relative="1" as="geometry" />
        </mxCell>
        <mxCell id="JZG982DdP2pkQQ2L5HDA-26" value="Upload File details to Database with Unique Key for Organization" style="whiteSpace=wrap;html=1;rounded=1;" vertex="1" parent="1">
          <mxGeometry x="363" y="740" width="124.5" height="70" as="geometry" />
        </mxCell>
        <mxCell id="JZG982DdP2pkQQ2L5HDA-28" value="File Details have been taken and added to Database" style="ellipse;whiteSpace=wrap;html=1;rounded=1;" vertex="1" parent="1">
          <mxGeometry x="347" y="840" width="157" height="90" as="geometry" />
        </mxCell>
      </root>
    </mxGraphModel>
  </diagram>
</mxfile>
